<svg id="Слой_2" data-name="Слой 2" xmlns="http://www.w3.org/2000/svg" viewBox="0 0 300 300"><defs><style>.cls-1{fill:#238b45;}</style></defs><path class="cls-1" d="M117.22,67.1s38.8,58.77,0,58.77C79.6,125.87,117.22,67.1,117.22,67.1Z"/><path class="cls-1" d="M156.47,21s28.16,42.64,0,42.64C129.18,63.64,156.47,21,156.47,21Z"/><path class="cls-1" d="M186.29,82.08s49.46,74.91,0,74.91C138.34,157,186.29,82.08,186.29,82.08Z"/><path class="cls-1" d="M136.77,278s8.67-62.88,40.34-92.2C208.22,157,244,154.69,263.54,152.38c0,0,4.61,31.12-21.9,56.47s-58.77,34.58-58.77,34.58c15-53,47.25-65.69,42.64-64.54C171,192.52,136.77,278,136.77,278Z"/><path class="cls-1" d="M61.86,150.08c-5.83-3.89,77.69,64.27,77.91,65.11.46,1.73,14.29-24.78,14.29-24.78s-28.77-35.8-54.17-49.55c-27.66-15-56.47-18.44-56.47-18.44s7,55.52,16.13,73.75c10.38,20.75,33.43,53,62.24,57.63L134.46,229S65.32,152.38,61.86,150.08Z"/></svg>