<svg id="Слой_2" data-name="Слой 2" xmlns="http://www.w3.org/2000/svg" viewBox="0 0 300 300"><defs><style>.cls-1{fill:#238b45;}.cls-2{fill:#005a32;}</style></defs><path class="cls-1" d="M133.23,54.83s21.74,32.93,0,32.93C112.15,87.76,133.23,54.83,133.23,54.83Z"/><path class="cls-1" d="M155.22,29s15.78,23.89,0,23.89C139.93,52.89,155.22,29,155.22,29Z"/><path class="cls-1" d="M171.93,63.22s27.72,42,0,42C145.07,105.2,171.93,63.22,171.93,63.22Z"/><path class="cls-1" d="M144.18,173s4.86-35.23,22.6-51.66c17.44-16.14,37.46-17.43,48.44-18.73A38.9,38.9,0,0,1,203,134.26,88.64,88.64,0,0,1,170,153.63c8.4-29.71,26.48-36.81,23.9-36.16C163.36,125.1,144.18,173,144.18,173Z"/><path class="cls-1" d="M102.21,101.32c-3.27-2.18,43.53,36,43.66,36.49.25,1,8-13.89,8-13.89s-16.12-20.06-30.35-27.76A99.37,99.37,0,0,0,91.88,85.83s3.93,31.1,9,41.32c5.81,11.63,18.73,29.71,34.87,32.29l7.1-13.91S104.15,102.61,102.21,101.32Z"/><path class="cls-2" d="M30.38,201.58A38.72,38.72,0,0,1,28,205.75q-2,3.23-2.73,3.59a3.13,3.13,0,0,1-1.35.37,3.37,3.37,0,0,1-1.94-.88A2.42,2.42,0,0,1,20.88,207q0-.88,5.64-9.46,3.07-4.69,5.62-9.3,5.1-9.3,6.23-10.81a3.08,3.08,0,0,1,2.32-1.52,3.47,3.47,0,0,1,2.77,1q.42.32.42,1.5a5.45,5.45,0,0,1-.15,1.42q4.11,12.52,6.43,17.73a25.57,25.57,0,0,0,4.66,7.54,12.92,12.92,0,0,1,1.43,1.57,2,2,0,0,1,.26,1.08,2.76,2.76,0,0,1-.9,2.08,3,3,0,0,1-2.14.84,4.88,4.88,0,0,1-3.47-2,21.64,21.64,0,0,1-3.32-5.43,23.37,23.37,0,0,1-1.56-3.89c0-.06,0-.09-.11-.09a36,36,0,0,0-5.4.85,66.4,66.4,0,0,0-6.73,1.67,4.15,4.15,0,0,1-1.15.2A2,2,0,0,1,30.38,201.58Zm12.94-6.87q-.54-1.32-3.19-9.43c-.16-.5-.27-.81-.33-.95l-6.38,12.13c.94-.16,1.91-.31,2.89-.45.66-.07,2.34-.39,5-.94C42,194.94,42.66,194.82,43.32,194.71Z"/><path class="cls-2" d="M64.73,207.24A44,44,0,0,0,64,212l-1.07,8.82a5.4,5.4,0,0,1-1,3,2.52,2.52,0,0,1-1.9.83A3,3,0,0,1,58,223.9a2.18,2.18,0,0,1-.91-1.67,18.71,18.71,0,0,1,.56-4.2,124.64,124.64,0,0,0,3.67-27.74v-.45a30.75,30.75,0,0,1,.16-4,3,3,0,0,1,3.23-2.53q2.44,0,2.45,3.75a39.07,39.07,0,0,1-.57,5.19l-.22,1.55a26.4,26.4,0,0,1,6.09-7.09q3.52-2.82,6.31-2.82a5.79,5.79,0,0,1,4.28,1.8,6.21,6.21,0,0,1,1.76,4.52,18.73,18.73,0,0,1-5.63,13.19q-5.62,5.94-11.13,5.94A3.14,3.14,0,0,1,64.73,207.24ZM77.91,189c-1.83,0-4.19,1.79-7.11,5.35s-4.37,6.36-4.37,8.4a1.77,1.77,0,0,0,.78,1.4,2.84,2.84,0,0,0,1.81.62q2.85,0,6.54-4.48t3.7-8.66a3.57,3.57,0,0,0-.43-2A1.17,1.17,0,0,0,77.91,189Z"/><path class="cls-2" d="M94.78,197.7l.38-.72a38,38,0,0,1,5.85-8.86q3.13-3.41,6.12-3.4a5.47,5.47,0,0,1,3.74,1.25,3.84,3.84,0,0,1,1.45,3,3.34,3.34,0,0,1-.49,1.85,1.55,1.55,0,0,1-1.37.78,3.5,3.5,0,0,1-2.54-1.15,2.3,2.3,0,0,0-1.28-.74q-1.68,0-5.64,5.24a24.12,24.12,0,0,0-4.76,11.77,4.11,4.11,0,0,1-1.1,2.63,3.33,3.33,0,0,1-2.31.76,2.3,2.3,0,0,1-2.21-1.77,18.27,18.27,0,0,1-.65-5.76c0-1.09,0-2.57.09-4.42s.24-3.9.52-6.43c.08-.66.13-1.17.16-1.55a16.81,16.81,0,0,1,.46-3,3.23,3.23,0,0,1,1.2-1.54,3.34,3.34,0,0,1,2.09-.71,2.36,2.36,0,0,1,1.84.69,2.25,2.25,0,0,1,.63,1.53,20.1,20.1,0,0,1-1,4.38,19.59,19.59,0,0,0-.61,2.74Z"/><path class="cls-2" d="M133.73,197.45a17.93,17.93,0,0,1-5.72,8.86q-4.21,3.62-8.41,3.61a7,7,0,0,1-5.48-2.44,8.7,8.7,0,0,1-2.16-6,19.65,19.65,0,0,1,4-11.41q3.94-5.61,9.59-5.61a7.74,7.74,0,0,1,6.22,2.84,10.18,10.18,0,0,1,2.38,6.77,15,15,0,0,1-.38,3.35Zm-11.68-7.1A14.42,14.42,0,0,0,119,194.8a13.81,13.81,0,0,0-1.5,6.13,6.16,6.16,0,0,0,.68,3.08,2,2,0,0,0,1.81,1.21q2.79,0,5.79-3.3a10.71,10.71,0,0,0,3-7.41,6.86,6.86,0,0,0-1-3.81,3.09,3.09,0,0,0-2.73-1.49,4.46,4.46,0,0,0-3,1.14Z"/><path class="cls-2" d="M146.49,201.13a23.09,23.09,0,0,0-5.69,7.8,9.22,9.22,0,0,1-1.52,2.56,5.38,5.38,0,0,1-2.88-.8,2.63,2.63,0,0,1-.92-2.26,7.26,7.26,0,0,1,1.2-3.44q1.2-2.06,6-6.44c.48-.45.89-.84,1.22-1.17q-4.29-6.28-4.29-9.81,0-3.7,3.25-3.71,2.28,0,2.43,3.33a14,14,0,0,0,2.52,7.07c.77-.7,1.61-1.53,2.49-2.49.25-.27.49-.52.72-.74a25.94,25.94,0,0,0,4.06-5.3,6.86,6.86,0,0,1,1.34-1.89,2.46,2.46,0,0,1,1.56-.43,2.76,2.76,0,0,1,2,.81,2.67,2.67,0,0,1,.83,2q0,2.45-10.45,11.88a26.31,26.31,0,0,0,7.57,6.58,6.27,6.27,0,0,1,.95.7,2.32,2.32,0,0,1,.18.92,2.7,2.7,0,0,1-.92,2,3.17,3.17,0,0,1-2.25.86Q152.5,209.15,146.49,201.13Z"/><path class="cls-2" d="M164.7,193.92v0c.48-2.73.72-4.28.72-4.67a5,5,0,0,1,.73-2.79,2.29,2.29,0,0,1,2-1.12,3.58,3.58,0,0,1,2.38.72,2.08,2.08,0,0,1,.86,1.61,17.29,17.29,0,0,1-.83,3.71l-.14.49A40.12,40.12,0,0,0,169,199c-.17,1.83-.25,3.3-.25,4.42a19.36,19.36,0,0,0,.47,3.66,3.81,3.81,0,0,1,.07.68c0,.34-.32.81-1,1.39a3.12,3.12,0,0,1-2.1.88q-3,0-3-4.5a49.33,49.33,0,0,1,1.08-9.29C164.45,195.41,164.58,194.64,164.7,193.92Zm10.85-18.46a3.56,3.56,0,0,1-1.44,2.8,4.21,4.21,0,0,1-2.49,1.2,3.16,3.16,0,0,1-2.39-1.12,3.33,3.33,0,0,1-1-2.25,3.49,3.49,0,0,1,1-2.62,4.09,4.09,0,0,1,3-1,3.41,3.41,0,0,1,2.44.89A2.8,2.8,0,0,1,175.55,175.46Z"/><path class="cls-2" d="M182.24,207.51a2.33,2.33,0,0,1-2.58,2.32q-2.94,0-2.94-4.25a78.87,78.87,0,0,1,.74-11.75,48.81,48.81,0,0,0,.58-7.45,2,2,0,0,1,2.14-2.07c2.24,0,3.37,1.36,3.37,4.09a46.92,46.92,0,0,1-1.19,6.76,24.6,24.6,0,0,0-.72,4.69q6.42-14.1,11.59-14.1a4,4,0,0,1,3.35,1.66c.85,1.11,1.29,3.56,1.32,7.37,0,3.47.19,5.21.54,5.21s1.2-1.69,2.81-5.05c1.78-3.73,3.3-6.2,4.57-7.39a5.74,5.74,0,0,1,4-1.8,3.8,3.8,0,0,1,3.62,2.14q1.13,2.15,1.57,7.25a36.44,36.44,0,0,0,.91,6.11,4,4,0,0,0,2,2.74A1.72,1.72,0,0,1,219,205.6a2.63,2.63,0,0,1-1.28,2,4.25,4.25,0,0,1-2.61,1,4,4,0,0,1-3.58-2.25q-1.29-2.27-1.74-9.07a28.77,28.77,0,0,0-.53-4.34c-.18-.71-.47-1.07-.84-1.07s-.81.54-1.44,1.61-1.71,3.2-3.25,6.39a29.32,29.32,0,0,1-3.52,6,4.2,4.2,0,0,1-3.16,1.7,4,4,0,0,1-2.61-1.12c-.88-.75-1.35-3.47-1.43-8.15q-.1-6.27-.81-6.27-.94,0-4.53,5.57A64.32,64.32,0,0,0,182.24,207.51Z"/><path class="cls-2" d="M237.7,201.31q-5.91,7.8-11.41,7.8a4.53,4.53,0,0,1-3.48-1.6,5.73,5.73,0,0,1-1.46-4.06q0-6,5.3-12.68T237.34,184a3.49,3.49,0,0,1,3.59,2.76c1.73,0,2.59.66,2.59,2a21.12,21.12,0,0,1-.5,3.42,40.73,40.73,0,0,0-.9,7.38,14,14,0,0,0,.4,4,14.51,14.51,0,0,0,.57,1.53,2.31,2.31,0,0,0,1.08.76,1.31,1.31,0,0,1,.9,1.19,2.25,2.25,0,0,1-1.16,1.91,4.31,4.31,0,0,1-2.41.76Q237.27,209.78,237.7,201.31Zm-1.35-12.46c-1.51,0-3.48,1.67-5.89,5s-3.63,6.19-3.63,8.52c0,1.23.25,1.84.76,1.84,1.77,0,3.94-1.56,6.53-4.7s3.87-5.88,3.87-8.23a2.93,2.93,0,0,0-.5-1.79A1.44,1.44,0,0,0,236.35,188.85Z"/><path class="cls-2" d="M249.58,183.77a21.9,21.9,0,0,1,1.55-5.29c.79-1.88,1.73-2.82,2.81-2.82a2.06,2.06,0,0,1,1.64.68,2.39,2.39,0,0,1,.58,1.62,5.35,5.35,0,0,1-.54,1.9,14.09,14.09,0,0,0-.74,2.12c-.09.31-.23.77-.42,1.39a15.73,15.73,0,0,0-.68,4.45c0,2-.2,3.21-.62,3.75a2.17,2.17,0,0,1-3.57-.27,4.24,4.24,0,0,1-.71-2.36A32.16,32.16,0,0,1,249.58,183.77Z"/><path class="cls-2" d="M268.92,190.6c-.13,0-.56,1.67-1.27,5a46.83,46.83,0,0,0-1.07,6.06,5.82,5.82,0,0,0,.4,2.58,1.36,1.36,0,0,0,1.29.73,6.77,6.77,0,0,0,2.41-.44,12.37,12.37,0,0,0,3.05-2,3.37,3.37,0,0,1,2-1,1.45,1.45,0,0,1,1.05.37,1.14,1.14,0,0,1,.39.86q0,2-3.19,4.48a10.73,10.73,0,0,1-6.74,2.51,5.77,5.77,0,0,1-4.52-1.75,7.35,7.35,0,0,1-1.56-5q0-3,2.26-12.1c-.95.1-1.62.15-2,.15h-.48a4,4,0,0,1-2.1-.67,2.36,2.36,0,0,1-1.06-2.16c0-1.25.71-1.88,2.13-1.88l4.81-.18c.63-1.81,1.29-4.19,2-7.12.42-1.83,1.37-2.74,2.85-2.74a2.5,2.5,0,0,1,1.93.75,2.43,2.43,0,0,1,.7,1.67c0,.24-.64,2.56-1.91,6.94q7.14-.62,7.84-.62a2.5,2.5,0,0,1,1.57.34,1.83,1.83,0,0,1,.38,1.34c0,1.33-1.13,2.18-3.39,2.54Z"/><path class="cls-2" d="M150,298.5C68.12,298.5,1.5,231.88,1.5,150S68.12,1.5,150,1.5,298.5,68.12,298.5,150,231.88,298.5,150,298.5Zm0-294C69.77,4.5,4.5,69.77,4.5,150S69.77,295.5,150,295.5,295.5,230.23,295.5,150,230.23,4.5,150,4.5Z"/></svg>