<svg id="Слой_2" data-name="Слой 2" xmlns="http://www.w3.org/2000/svg" viewBox="0 0 300 300"><defs><style>.cls-1{fill:#238b45;}.cls-2{fill:#005a32;}.cls-3{fill:#cc322e;}</style></defs><path class="cls-1" d="M133.23,54.83s21.74,32.93,0,32.93C112.15,87.76,133.23,54.83,133.23,54.83Z"/><path class="cls-1" d="M155.22,29s15.78,23.89,0,23.89C139.93,52.89,155.22,29,155.22,29Z"/><path class="cls-1" d="M171.93,63.22s27.72,42,0,42C145.07,105.2,171.93,63.22,171.93,63.22Z"/><path class="cls-1" d="M144.18,173s4.86-35.23,22.6-51.66c17.44-16.14,37.46-17.43,48.44-18.73A38.9,38.9,0,0,1,203,134.26,88.64,88.64,0,0,1,170,153.63c8.4-29.71,26.48-36.81,23.9-36.16C163.36,125.1,144.18,173,144.18,173Z"/><path class="cls-1" d="M102.21,101.32c-3.27-2.18,43.53,36,43.66,36.49.25,1,8-13.89,8-13.89s-16.12-20.06-30.35-27.76A99.37,99.37,0,0,0,91.88,85.83s3.93,31.1,9,41.32c5.81,11.63,18.73,29.71,34.87,32.29l7.1-13.91S104.15,102.61,102.21,101.32Z"/><path class="cls-2" d="M150,298.5C68.12,298.5,1.5,231.88,1.5,150S68.12,1.5,150,1.5,298.5,68.12,298.5,150,231.88,298.5,150,298.5Zm0-294C69.77,4.5,4.5,69.77,4.5,150S69.77,295.5,150,295.5,295.5,230.23,295.5,150,230.23,4.5,150,4.5Z"/><path class="cls-2" d="M63.23,195.53l-7.16,9.67q-5,6.95-7.65,6.94a2.7,2.7,0,0,1-2.21-1.43,19.39,19.39,0,0,1-2-4.35c-.68-2-1.15-3.42-1.42-4.42a22.62,22.62,0,0,0-1.25-4l-1.09,5.59q-.52,2.7-1.06,5T38.25,214c-.42,2.12-.68,3.72-.78,4.79,0,.36-.37.74-1,1.16a3.28,3.28,0,0,1-1.5.62,2.63,2.63,0,0,1-1.92-.95,2.8,2.8,0,0,1-.89-1.84,21,21,0,0,1,.86-5.24q3.54-13,4-16.4a39.84,39.84,0,0,0,.5-5.6,2,2,0,0,1,1-1.79,5.07,5.07,0,0,1,2.65-.62A2.39,2.39,0,0,1,43,189.28a6.84,6.84,0,0,1,1.16,2.15l0,0,3,8.35q1.78,5,2.39,6.36a109.86,109.86,0,0,0,6.87-8.74q4.56-6.21,6.23-8c1.12-1.19,1.91-1.79,2.37-1.79a4.33,4.33,0,0,1,2.34.88c.86.59,1.29,1.09,1.29,1.51s-.28,2.47-.84,6.47q-.58,4.23-1,9.47t-.48,6.19a10,10,0,0,0,.3,2.38,7.74,7.74,0,0,1,.22,1.79,4.29,4.29,0,0,1-.74,2.9,3.07,3.07,0,0,1-2.29.77c-1.88,0-2.81-1.41-2.81-4.23a79.23,79.23,0,0,1,.73-9.77c.48-3.84.93-6.8,1.33-8.86C63.09,196.34,63.18,195.82,63.23,195.53Z"/><path class="cls-2" d="M93.11,211.8q0,2.23-3.76,5.34a12.94,12.94,0,0,1-8.48,3.1A7.34,7.34,0,0,1,75.15,218a9.1,9.1,0,0,1-2.08-6.37,17.66,17.66,0,0,1,4.25-11.28Q81.58,195,86.41,195a5.1,5.1,0,0,1,5.33,5.16q0,3.74-3.59,7.12A19.49,19.49,0,0,1,79,212a.73.73,0,0,0-.64.77,2.79,2.79,0,0,0,.91,2,3.26,3.26,0,0,0,2.44.93q4.32,0,8.57-4.44a2.28,2.28,0,0,1,1.59-.86Q93.11,210.36,93.11,211.8ZM78.7,208a12.93,12.93,0,0,0,6-2.9q2.59-2.21,2.59-4a1.81,1.81,0,0,0-.4-1.2,1.25,1.25,0,0,0-1-.48q-1.87,0-4.15,2.75A14.25,14.25,0,0,0,78.7,208Z"/><path class="cls-2" d="M102.05,208.53l.37-.69a36.26,36.26,0,0,1,5.59-8.47q3-3.26,5.86-3.26a5.2,5.2,0,0,1,3.57,1.21,3.64,3.64,0,0,1,1.39,2.85,3.3,3.3,0,0,1-.47,1.78,1.5,1.5,0,0,1-1.31.74,3.38,3.38,0,0,1-2.43-1.1,2.21,2.21,0,0,0-1.23-.71q-1.61,0-5.39,5a23,23,0,0,0-4.55,11.26,4,4,0,0,1-1.06,2.52,3.21,3.21,0,0,1-2.21.72,2.17,2.17,0,0,1-2.1-1.69,17.19,17.19,0,0,1-.63-5.51q0-1.56.09-4.23c0-1.67.22-3.72.49-6.14.07-.63.12-1.13.15-1.49a16.91,16.91,0,0,1,.44-2.89A3.14,3.14,0,0,1,99.77,197a3.21,3.21,0,0,1,2-.68,2.26,2.26,0,0,1,1.76.66,2.15,2.15,0,0,1,.6,1.46,19,19,0,0,1-1,4.19,17.25,17.25,0,0,0-.58,2.62Z"/><path class="cls-2" d="M125.34,220.37a7.14,7.14,0,0,1-5.39-1.93,7.43,7.43,0,0,1-1.85-5.38c0-3.6,1.47-7.51,4.4-11.7s5.82-6.3,8.64-6.3a4.2,4.2,0,0,1,3.48,2,7.19,7.19,0,0,1,1.44,4.22,3.83,3.83,0,0,1-.76,2.78,2.17,2.17,0,0,1-1.47.72c-1.39,0-2.2-.95-2.43-2.87-.17-1.41-.53-2.11-1.06-2.11-1.11,0-2.59,1.59-4.42,4.77s-2.75,6-2.75,8.36c0,1.93,1,2.9,3.14,2.9a12.23,12.23,0,0,0,7-2.45,5.06,5.06,0,0,1,2.62-1.18,1,1,0,0,1,1.18,1.18q0,1.65-3.79,4.31A13.73,13.73,0,0,1,125.34,220.37Z"/><path class="cls-3" d="M147.47,212.25a38.6,38.6,0,0,1-2.25,4c-1.25,2.06-2.12,3.2-2.61,3.44a3,3,0,0,1-1.29.36,3.33,3.33,0,0,1-1.86-.85,2.33,2.33,0,0,1-1.08-1.75q0-.84,5.39-9.05,2.94-4.49,5.37-8.89,4.88-8.9,6-10.35a2.92,2.92,0,0,1,2.22-1.45,3.31,3.31,0,0,1,2.64.95c.27.2.41.68.41,1.44a5,5,0,0,1-.15,1.35q3.93,12,6.15,17a24.6,24.6,0,0,0,4.46,7.21,13,13,0,0,1,1.37,1.5,2,2,0,0,1,.24,1,2.6,2.6,0,0,1-.86,2,2.86,2.86,0,0,1-2,.81,4.66,4.66,0,0,1-3.32-1.89,20.83,20.83,0,0,1-3.18-5.2,22.67,22.67,0,0,1-1.49-3.72c0-.06,0-.08-.11-.08a35.11,35.11,0,0,0-5.16.81q-4,.83-6.44,1.59a3.68,3.68,0,0,1-1.09.19A1.91,1.91,0,0,1,147.47,212.25Zm12.37-6.58q-.51-1.26-3.05-9c-.16-.47-.26-.77-.32-.9l-6.1,11.6c.9-.16,1.82-.3,2.77-.43.63-.07,2.23-.37,4.81-.9C158.58,205.89,159.21,205.77,159.84,205.67Z"/><path class="cls-2" d="M182.75,209.46a77.75,77.75,0,0,0-.54,8,3.35,3.35,0,0,1-.71,2.1,2.3,2.3,0,0,1-1.93.93c-1.77,0-2.65-1-2.65-3.08q0-1.69,1.25-11.47,1-7.91,1-9.43a6.5,6.5,0,0,0-.15-2,2.6,2.6,0,0,1-1.4-2.55q0-1.82,5.82-3.15a45.17,45.17,0,0,1,10-1.34,13.37,13.37,0,0,1,7.74,2,6.26,6.26,0,0,1,2.88,5.4q0,4.89-5.29,8.6a34,34,0,0,1-12.85,5.25C184.06,209.11,183,209.36,182.75,209.46Zm1.91-16.14-1.27,11.3A33.32,33.32,0,0,0,194.26,201q4.68-2.64,4.68-5.64,0-3.58-5.67-3.59A26.94,26.94,0,0,0,184.66,193.32Z"/><path class="cls-2" d="M210.42,208.53l.36-.69a36.27,36.27,0,0,1,5.6-8.47q3-3.26,5.85-3.26a5.23,5.23,0,0,1,3.58,1.21,3.67,3.67,0,0,1,1.39,2.85,3.22,3.22,0,0,1-.48,1.78,1.48,1.48,0,0,1-1.31.74,3.35,3.35,0,0,1-2.42-1.1,2.21,2.21,0,0,0-1.23-.71q-1.6,0-5.39,5a23.13,23.13,0,0,0-4.56,11.26,4,4,0,0,1-1.05,2.52,3.21,3.21,0,0,1-2.21.72,2.19,2.19,0,0,1-2.11-1.69,17.55,17.55,0,0,1-.62-5.51q0-1.56.09-4.23c.05-1.67.22-3.72.49-6.14.07-.63.12-1.13.15-1.49a16.91,16.91,0,0,1,.44-2.89,3.08,3.08,0,0,1,1.15-1.47,3.21,3.21,0,0,1,2-.68,2.26,2.26,0,0,1,1.76.66,2.15,2.15,0,0,1,.6,1.46,18.6,18.6,0,0,1-1,4.19,18.55,18.55,0,0,0-.58,2.62Z"/><path class="cls-2" d="M247.67,208.29a17.11,17.11,0,0,1-5.47,8.48c-2.68,2.3-5.37,3.45-8,3.45a6.69,6.69,0,0,1-5.24-2.33,8.32,8.32,0,0,1-2.07-5.73,18.8,18.8,0,0,1,3.78-10.91q3.78-5.37,9.18-5.37a7.39,7.39,0,0,1,5.95,2.71,9.79,9.79,0,0,1,2.28,6.48,14.21,14.21,0,0,1-.37,3.2Zm-11.17-6.78a13.61,13.61,0,0,0-2.94,4.25,13.15,13.15,0,0,0-1.44,5.86,5.94,5.94,0,0,0,.65,2.95,2,2,0,0,0,1.73,1.16c1.78,0,3.62-1,5.54-3.16a10.27,10.27,0,0,0,2.88-7.09,6.56,6.56,0,0,0-.93-3.64,3,3,0,0,0-2.61-1.43,4.28,4.28,0,0,0-2.86,1.1Z"/><path class="cls-2" d="M257.15,217.66a40.08,40.08,0,0,0-.73,4.56l-1,8.44a5.13,5.13,0,0,1-1,2.86,2.36,2.36,0,0,1-1.81.79,2.84,2.84,0,0,1-1.84-.72,2.06,2.06,0,0,1-.87-1.6,17.71,17.71,0,0,1,.54-4,119.8,119.8,0,0,0,3.5-26.53V201a29.88,29.88,0,0,1,.16-3.83,3,3,0,0,1,.93-1.69,3,3,0,0,1,2.16-.73c1.56,0,2.34,1.2,2.34,3.59a37.7,37.7,0,0,1-.54,5l-.21,1.48a25.07,25.07,0,0,1,5.82-6.78q3.38-2.69,6-2.69a5.52,5.52,0,0,1,4.1,1.72,5.91,5.91,0,0,1,1.68,4.32A18,18,0,0,1,271,214q-5.39,5.69-10.64,5.68A3,3,0,0,1,257.15,217.66Zm12.61-17.46q-2.62,0-6.8,5.11t-4.18,8a1.72,1.72,0,0,0,.74,1.35,2.71,2.71,0,0,0,1.73.59q2.73,0,6.26-4.29t3.54-8.28a3.46,3.46,0,0,0-.41-1.92A1.11,1.11,0,0,0,269.76,200.2Z"/></svg>